<svg height="470pt" viewBox="0 0 470 470.272" width="470pt" xmlns="http://www.w3.org/2000/svg">
<path d="m359.964844 302.675781c-4.09375 0-8.171875-1.554687-11.304688-4.671875-6.253906-6.25-6.253906-16.382812-.023437-22.632812l56.855469-56.980469c20.628906-20.503906 31.976562-47.894531 31.976562-77.183594 0-60.226562-48.875-109.226562-108.949219-109.226562-29.226562 0-56.53125 11.347656-76.925781 31.976562l-56.898438 57.023438c-6.25 6.273437-16.382812 6.25-22.632812.042969-6.25-6.25-6.25-16.363282-.023438-22.613282l56.855469-56.980468c26.386719-26.710938 61.78125-41.429688 99.625-41.429688 77.71875 0 140.949219 63.359375 140.949219 141.226562 0 37.886719-14.699219 73.34375-41.386719 99.839844l-56.808593 56.917969c-3.117188 3.136719-7.210938 4.691406-11.308594 4.691406zm0 0"/>
<path d="m141.085938 470.273438c-77.71875 0-140.949219-63.363282-140.949219-141.226563 0-37.890625 14.699219-73.34375 41.386719-99.863281l56.808593-56.894532c6.230469-6.292968 16.363281-6.273437 22.636719-.042968 6.25 6.25 6.25 16.382812.019531 22.632812l-56.851562 56.984375c-20.652344 20.476563-32 47.871094-32 77.183594 0 60.222656 48.875 109.226563 108.949219 109.226563 29.203124 0 56.511718-11.351563 76.925781-32l56.898437-57.027344c6.226563-6.292969 16.363282-6.269532 22.632813-.039063 6.25 6.25 6.25 16.382813.023437 22.632813l-56.855468 56.980468c-26.386719 26.730469-61.800782 41.453126-99.625 41.453126zm0 0"/>
<path d="m149.46875 336.660156c-4.09375 0-8.171875-1.554687-11.304688-4.671875-6.253906-6.25-6.253906-16.382812-.023437-22.632812l170.667969-171.050781c6.230468-6.292969 16.363281-6.25 22.632812-.042969 6.25 6.25 6.25 16.382812.023438 22.632812l-170.667969 171.050781c-3.136719 3.136719-7.230469 4.714844-11.328125 4.714844zm0 0"/>
</svg>