<svg height="512pt" viewBox="0 0 512 511" width="512pt" xmlns="http://www.w3.org/2000/svg"><g fill="#f0c33c">
<path d="m306 256.273438c0-27.589844-22.386719-49.957032-50-49.957032s-50 22.367188-50 49.957032c0 27.589843 22.386719 49.957031 50 49.957031s50-22.367188 50-49.957031zm0 0"/>
<path d="m176 256.273438c0-.277344 0-.550782.003906-.824219.078125-7.425781-5.230468-13.808594-12.5625-15.011719l-69.089844-11.316406c-8.675781-1.417969-16.757812 4.882812-17.390624 13.644531-2.558594 35.574219 5.519531 71.257813 23.402343 102.402344 19.113281 33.285156 48.324219 59.476562 83.183594 74.917969 8.0625 3.570312 17.464844-.554688 20.292969-8.90625l22.347656-66c2.351562-6.9375-.621094-14.625-7.121094-18.011719-25.589844-13.328125-43.066406-40.066407-43.066406-70.894531zm0 0"/>
<path d="m419.332031 233.753906-72.421875 9.75c-6.320312.851563-10.921875 6.285156-10.910156 12.65625v.113282c0 31.285156-17.992188 58.367187-44.199219 71.492187-6.550781 3.28125-9.871093 10.714844-7.722656 17.710937l20.621094 67.144532c2.578125 8.398437 11.820312 12.832031 19.957031 9.503906 33.039062-13.503906 61.449219-36.589844 81.4375-66.429688 21.359375-31.890624 31.871094-69.667968 30.238281-107.730468-.378906-8.808594-8.253906-15.390625-17-14.210938zm0 0"/>
<path d="m256 176.34375c14.574219 0 28.234375 3.898438 40.003906 10.707031 6.410156 3.707031 14.554688 2.285157 19.230469-3.453125l45.003906-55.230468c5.550781-6.808594 4.097657-16.949219-3.195312-21.855469-29.609375-19.921875-64.609375-30.675781-100.546875-30.675781-43.890625 0-86.300782 16.039062-119.1875 45.078124l66.308594 74.976563c14.039062-12.167969 32.34375-19.546875 52.382812-19.546875zm0 0"/></g>
<path d="m219.066406 327.167969c-25.589844-13.328125-43.066406-40.066407-43.066406-70.894531 0-.277344 0-.550782.003906-.824219.078125-7.425781-5.230468-13.8125-12.5625-15.011719l-21.003906-3.441406c3.132812 39.144531 13.089844 80.078125 46.058594 105.3125 2.554687 1.953125 5.273437 3.519531 4.242187 6.566406l-22.003906 64.917969c4.199219 2.273437 8.496094 4.382812 12.882813 6.324219 8.039062 3.558593 17.402343-.613282 20.222656-8.9375l22.347656-66c2.351562-6.9375-.621094-14.625-7.121094-18.011719zm0 0" fill="#d9a60d"/>
<path d="m436.332031 247.964844c-.378906-8.808594-8.253906-15.390625-17-14.210938l-27.929687 3.757813c2.859375 2.589843 4.75 6.261719 4.929687 10.453125 1.632813 38.0625-8.882812 75.839844-30.242187 107.730468-15.824219 23.628907-36.941406 42.996094-61.445313 56.75l.054688.175782c2.578125 8.398437 11.820312 12.832031 19.957031 9.503906 33.039062-13.503906 61.449219-36.589844 81.4375-66.429688 21.359375-31.890624 31.871094-69.667968 30.238281-107.730468zm0 0" fill="#d9a60d"/>
<path d="m357.046875 106.511719-12.875-7.34375-65.65625 80.398437c6.171875 1.808594 12.035156 4.328125 17.488281 7.484375 6.410156 3.707031 14.554688 2.285157 19.230469-3.453125l45.003906-55.230468c5.550781-6.808594 4.101563-16.949219-3.191406-21.855469zm0 0" fill="#d9a60d"/>
<path d="M256 .5c-141.386719 0-256 114.515625-256 255.773438 0 141.261718 114.613281 255.773437 256 255.773437s256-114.511719 256-255.773437c0-141.257813-114.613281-255.773438-256-255.773438z
m-216.117188 255.773438c0-52.304688 18.613282-100.261719 49.585938-137.625l304.28125 304.011718c-37.398438 30.941406-85.398438 49.539063-137.75 49.539063-119.359375 0-216.117188-96.671875-216.117188-215.925781z
m382.191407 138.167968 -304.363281-304.09375c37.476562-31.214844 85.683593-50 138.289062-50 119.359375 0 216.117188 96.671875 216.117188 215.925782 0 52.558593-18.800782 100.722656-50.042969 138.167968zm0 0" fill="#e5554e"/>
<path d="m256 .5c-6.710938 0-13.359375.261719-19.941406.769531 130.183594 10.019531 233.082031 117.335938 235.984375 249.285157.097656 3.71875.101562 7.441406.003906 11.164062-2.765625 132.074219-105.710937 239.53125-235.988281 249.5625 6.578125.503906 13.230468.765625 19.941406.765625 141.386719 0 256-114.511719 256-255.773437 0-141.257813-114.613281-255.773438-256-255.773438zm0 0" fill="#c62430"/></svg>