<?xml version="1.0" encoding="iso-8859-1"?>
<!-- Generator: Adobe Illustrator 19.0.0, SVG Export Plug-In . SVG Version: 6.00 Build 0)  -->
<svg version="1.1" id="Capa_1" xmlns="http://www.w3.org/2000/svg" xmlns:xlink="http://www.w3.org/1999/xlink" x="0px" y="0px" viewBox="0 0 480 480" style="enable-background:new 0 0 480 480;" xml:space="preserve">
<path d="M472,464 h-24 v-16 c0 -4.8 -3.2 -8 -8 -8 s-8,3.2-8,8 v16 h-32 v-16 c0-4.8-3.2-8-8-8s-8,3.2-8,8v16h-32v-16c0-4.8-3.2-8-8-8
	s-8,3.2-8,8v16h-32v-16c0-4.8-3.2-8-8-8s-8,3.2-8,8v16h-32v-16c0-4.8-3.2-8-8-8s-8,3.2-8,8v16h-32v-16c0-4.8-3.2-8-8-8s-8,3.2-8,8
	v16h-32v-16c0-4.8-3.2-8-8-8s-8,3.2-8,8v16h-32v-16c0-4.8-3.2-8-8-8s-8,3.2-8,8v16H64v-16c0-4.8-3.2-8-8-8s-8,3.2-8,8v16H16V248
	h92.8C89.6,313.6,69.6,380,36,400.8c-4,2.4-5.6,7.2-3.2,11.2c2.4,4,7.2,5.6,11.2,3.2c0,0,0.8,0,0.8-0.8
	c40-24.8,60-93.6,81.6-166.4h228.8c20.8,73.6,40.8,142.4,81.6,167.2 c4,2.4,8.8,0.8,11.2-3.2 c1.6-3.2,0.8-8-2.4-10.4
	c-34.4-20.8-54.4-87.2-72.8-152.8 H472 c4.8-0.8,8-4,8-8.8s-3.2-8-8-8 H366.4 C340,140,311.2,48,240,48 s-100,92-126.4,184 H16 V8
	c0-4.8-3.2-8-8-8S0,3.2,0,8v464c0,4.8,3.2,8,8,8 h464 c4.8,0,8-3.2,8-8S476.8,464,472,464z M240,64c58.4,0,85.6,83.2,109.6,168
	H130.4C154.4,147.2,181.6,64,240,64z"/>
</svg>
