<?xml version="1.0" encoding="iso-8859-1"?>
<!-- Generator: Adobe Illustrator 19.0.0, SVG Export Plug-In . SVG Version: 6.00 Build 0)  -->
<svg version="1.1" id="Capa_1" xmlns="http://www.w3.org/2000/svg" xmlns:xlink="http://www.w3.org/1999/xlink" x="0px" y="0px"
	 viewBox="0 0 495.616 495.616" style="enable-background:new 0 0 495.616 495.616;" xml:space="preserve">
<rect x="69.07" y="295.215" transform="matrix(0.9365 0.3508 -0.3508 0.9365 114.5825 -10.0678)" width="32.019" height="32.019"/>
<rect x="46.404" y="355.105" transform="matrix(0.9362 0.3514 -0.3514 0.9362 134.4023 1.7416)" width="32" height="31.984"/>
<polygon points="116.72,271.816 151.088,180.168 151.088,459.928 46.176,459.928 60.544,421.624 30.576,410.376 0,491.928 
				183.088,491.928 183.088,3.688 86.752,260.568 			"/>
<path d="M215.088,319.288v172.64h280.528L215.088,319.288z M247.088,376.568l135.472,83.36H247.088V376.568z"/>
<path d="M306.4,160.616l-20.688-20.688h41.376c44.161,0.053,79.947,35.839,80,80v48h32v-48c-0.07-61.827-50.173-111.929-112-112
				h-41.376L306.4,87.24l-22.624-22.624l-59.312,59.312l59.312,59.312L306.4,160.616z"/>
<rect x="407.088" y="299.928" width="32" height="32"/>
</svg>
