<?xml version="1.0" encoding="iso-8859-1"?>
<!-- Generator: Adobe Illustrator 19.0.0, SVG Export Plug-In . SVG Version: 6.00 Build 0)  -->
<svg version="1.1" id="Capa_1" xmlns="http://www.w3.org/2000/svg" xmlns:xlink="http://www.w3.org/1999/xlink" x="0px" y="0px"
	 viewBox="0 0 495.616 495.616" style="enable-background:new 0 0 495.616 495.616;" xml:space="preserve">
<rect x="417.207" y="355.064" transform="matrix(-0.9362 0.3514 -0.3514 -0.9362 969.1865 566.1903)" width="32" height="31.984"/>
<polygon points="465.04,410.376 435.072,421.624 449.44,459.928 344.528,459.928 344.528,180.184 378.88,271.816 
				408.864,260.568 312.528,3.688 312.528,491.928 495.616,491.928 			"/>
<rect x="394.766" y="295.112" transform="matrix(-0.9365 0.3506 -0.3506 -0.9365 904.5325 458.4717)" width="32" height="32"/>
<path d="M280.528,491.928v-172.64L0,491.928H280.528z M248.528,459.928H113.056l135.472-83.36V459.928z"/>
<path d="M88.528,219.928c0.053-44.161,35.839-79.947,80-80h41.376l-20.688,20.688l22.624,22.624l59.312-59.312L211.84,64.616
				L189.216,87.24l20.688,20.688h-41.376c-61.823,0.079-111.921,50.177-112,112v48h32V219.928z"/>
<rect x="56.528" y="299.928" width="32" height="32"/>
</svg>
