<?xml version="1.0" encoding="iso-8859-1"?>
<!-- Generator: Adobe Illustrator 18.0.0, SVG Export Plug-In . SVG Version: 6.00 Build 0)  -->
<!DOCTYPE svg PUBLIC "-//W3C//DTD SVG 1.1//EN" "http://www.w3.org/Graphics/SVG/1.1/DTD/svg11.dtd">
<svg version="1.1" id="Capa_1" xmlns="http://www.w3.org/2000/svg" xmlns:xlink="http://www.w3.org/1999/xlink" x="0px" y="0px"
	 viewBox="0 0 492.924 492.924" style="enable-background:new 0 0 492.924 492.924;" xml:space="preserve">
<path d="M405.825,0 H188.709 c-19.016,0.008-34.5,15.49-34.518,34.521 v16.297 h-16.303 c-19.017,0.01-34.5,15.498-34.514,34.521v16.309
	H87.082c-19.029,0.006-34.494,15.482-34.514,34.522l0.02,322.238c-0.02,19.043,15.465,34.525,34.494,34.516 h217
	c19.063,0.01,34.546-15.473,34.532-34.512 v-16.314 h16.303
	c19.063,0.01,34.546-15.473,34.532-34.512 v-16.314 h16.303
	c19.048,0.008,34.53-15.477,34.512-34.508l0.019-322.248 C440.336,15.482,424.873,0.008,405.825,0z
	
	M311.457,458.5 c-0.02,3.99-3.276,7.248-7.274,7.248	H87.082
	c-3.98,0-7.243-3.25-7.256-7.252 V136.17 c0-4,3.275-7.268,7.256-7.268 l217.119,0.01 c3.998,0,7.255,3.258,7.255,7.242 V391.963z
	
	M362.264,407.592 c-0.02,3.99-3.276,7.248-7.274,7.248 h-16.303 l0.014-278.68
	c-0.018-19.033-15.5-34.516-34.549-34.522 H130.647V85.334c0-3.984,3.244-7.242,7.222-7.242l217.121-0.01
	c3.998,0,7.274,3.268,7.274,7.258V407.592z 
	
	M413.084,356.77c-0.02,3.992-3.275,7.25-7.26,7.25 h-16.303 l0.014-278.68
	c-0.014-19.029-15.482-34.512-34.546-34.521H181.467V34.514c0-3.992,3.258-7.242,7.223-7.242l217.135-0.008
	c3.984,0,7.26,3.258,7.26,7.258V356.77z"/>
</svg>
