<svg height="469.34933pt" viewBox="0 0 469.34933 469.34933" width="469.34933pt" xmlns="http://www.w3.org/2000/svg">
<path d="m322.964844 338.980469c-4.09375 0-8.191406-1.554688-11.304688-4.691407-6.253906-6.25-6.253906-16.386718 0-22.636718l93.714844-93.714844c20.628906-20.4375 31.980469-47.746094 31.980469-76.972656 0-60.074219-48.875-108.949219-108.949219-108.949219-29.226562 0-56.535156 11.328125-76.929688 31.914063l-93.867187 93.847656c-6.25 6.25-16.382813 6.25-22.632813 0-6.25-6.253906-6.25-16.386719 0-22.636719l93.78125-93.78125c26.410157-26.667969 61.824219-41.34375 99.625-41.34375 77.71875 0 140.949219 63.230469 140.949219 140.949219 0 37.824218-14.699219 73.238281-41.386719 99.667968l-93.652343 93.65625c-3.136719 3.113282-7.230469 4.691407-11.328125 4.691407zm0 0"/>
<path d="m140.949219 469.347656c-77.71875 0-140.949219-63.230468-140.949219-140.949218 0-37.824219 14.699219-73.234376 41.386719-99.667969l56.8125-56.789063c6.25-6.25 16.382812-6.25 22.632812 0s6.25 16.382813 0 22.632813l-56.851562 56.855469c-20.652344 20.414062-31.980469 47.722656-31.980469 76.96875 0 60.078124 48.875 108.949218 108.949219 108.949218 29.226562 0 56.535156-11.328125 76.929687-31.914062l56.894532-56.894532c6.25-6.25 16.382812-6.25 22.632812 0 6.253906 6.25 6.253906 16.382813 0 22.632813l-56.851562 56.855469c-26.390626 26.644531-61.800782 41.320312-99.605469 41.320312zm0 0"/>
<path d="m234.667969 250.683594c-4.097657 0-8.191407-1.558594-11.308594-4.695313-6.25-6.25-6.25-16.382812 0-22.632812l85.332031-85.335938c6.253906-6.25 16.386719-6.25 22.636719 0 6.25 6.253907 6.25 16.386719 0 22.636719l-85.332031 85.332031c-3.136719 3.136719-7.234375 4.695313-11.328125 4.695313zm0 0"/>
<path d="m149.332031 336.015625c-4.09375 0-8.191406-1.558594-11.304687-4.691406-6.25-6.253907-6.25-16.386719 0-22.636719l47.574218-47.574219c6.25-6.25 16.382813-6.25 22.632813 0 6.25 6.253907 6.25 16.386719 0 22.636719l-47.574219 47.574219c-3.136718 3.132812-7.230468 4.691406-11.328125 4.691406zm0 0"/>
<path d="m453.332031 469.347656c-4.09375 0-8.191406-1.554687-11.304687-4.691406l-437.335938-437.332031c-6.25-6.253907-6.25-16.386719 0-22.636719 6.253906-6.25 16.386719-6.25 22.636719 0l437.332031 437.332031c6.25 6.253907 6.25 16.386719 0 22.636719-3.136718 3.136719-7.230468 4.691406-11.328125 4.691406zm0 0"/>
</svg>