<?xml version="1.0" encoding="iso-8859-1"?>
<!-- Generator: Adobe Illustrator 19.0.0, SVG Export Plug-In . SVG Version: 6.00 Build 0)  -->
<svg version="1.1" id="Capa_1" xmlns="http://www.w3.org/2000/svg" xmlns:xlink="http://www.w3.org/1999/xlink" x="0px" y="0px"
	 viewBox="0 0 438.857 438.857" style="enable-background:new 0 0 438.857 438.857;" xml:space="preserve">
<path style="fill:#4DCFE0;" d="M413.257,267.494l20.375-23.51l-108.669-94.041c-6.269-5.224-15.151-5.224-20.898,0.522
	l-66.873,63.216l-50.678-62.171c-4.702-6.269-13.584-7.837-20.376-3.657L6.792,244.506l16.196,26.645l147.853-89.339
	l176.588,217.339l24.555-19.853L257.567,238.237l58.514-55.38L413.257,267.494z"/>
<path style="fill:#1185E0;" d="M423.184,407.51H15.673C6.792,407.51,0,400.718,0,391.837V47.02c0-8.882,6.792-15.673,15.673-15.673
	h407.51c8.882,0,15.673,6.792,15.673,15.673v344.816C438.857,400.718,432.065,407.51,423.184,407.51z M31.347,376.163H407.51V62.694
	H31.347V376.163z"/>
</svg>
